<svg version="1.1" viewBox="0 0 300 148.3425414364641" width="300" height="148.3425414364641" xmlns="http://www.w3.org/2000/svg"><defs><clipPath id="clip-1"><rect x="0" y="0" transform="scale(0.14648,0.14644)" width="2048" height="1013" fill="none"/></clipPath></defs><g clip-path="url(#clip-1)" fill="none" fill-rule="nonzero" stroke="none" stroke-width="1" stroke-linecap="butt" stroke-linejoin="miter" stroke-miterlimit="10" stroke-dasharray="" stroke-dashoffset="0" style="mix-blend-mode: normal"><path d="M269.23389,44.21399c1.75635,-0.00293 9.42041,-0.29083 10.56299,-0.02504c-0.0498,0.111 -0.04102,0.14761 -0.15088,0.20633c-0.77197,0.41676 -16.12939,20.95481 -17.75537,23.20074c1.83105,2.52387 18.08789,24.03442 18.73535,24.32759l0.09814,0.04525c0.08643,0.03968 0.17432,0.07717 0.26367,0.11203c-0.44092,0.374 -9.7998,0.25261 -11.01416,0.16138c-1.31689,-1.37447 -2.69092,-3.32504 -3.85107,-4.88037c-3.28125,-4.40034 -6.75879,-8.72439 -9.96826,-13.17232c-15.29736,21.32296 -26.7627,37.5456 -54.45557,41.99998c-18.43799,2.96553 -36.49512,-1.11103 -54.07764,-6.0179c-34.3897,-9.59702 -66.61743,-18.64532 -102.08877,-7.61292c-8.63042,2.68422 -16.84395,5.718 -24.92827,10.0006l-0.45747,-0.40769c9.38276,-7.31872 20.42314,-12.27934 31.51978,-16.00152c33.26587,-11.15864 64.26372,-1.70792 96.81753,6.65945c10.14258,2.60705 20.33936,5.08011 30.93164,5.81304c13.55713,0.93794 28.12646,-1.10254 40.07227,-7.94255c4.00488,-2.29323 7.81494,-5.35981 11.29541,-8.3804c1.03271,-1.13593 2.1416,-2.14621 3.20654,-3.25314c5.78467,-6.01776 10.59229,-12.98942 15.63135,-19.63291c0.4043,-0.53348 0.86133,-1.19069 1.20117,-1.76078c-2.77148,-4.06046 -6.49512,-8.65234 -9.43359,-12.69537c-1.76514,-2.42737 -6.29004,-8.93057 -8.18848,-10.85566c2.31152,0.12887 4.4707,0.105 6.78516,0.08274c0.93896,-0.00893 2.63525,-0.07908 3.51709,0.01303c0.85986,0.9006 1.90283,2.37992 2.67334,3.40412l4.4209,5.90354c1.72705,2.30158 4.16162,5.12887 5.69238,7.41478c1.36084,-2.06625 4.35205,-5.31383 5.99854,-7.44026c1.54688,-2.0273 3.08203,-4.06324 4.60693,-6.10752c0.646,-0.87336 1.6626,-2.37743 2.33936,-3.15825z" fill="#203a70"/><path d="M200.90918,108.37426c0.54785,-0.07952 1.66113,0.03954 2.25439,0.08318l0.08057,0.28204c0.04834,-0.01552 0.17139,-0.05081 0.2124,-0.07073c-0.79395,0.22493 -1.68311,0.16753 -2.5166,0.16269c-0.54053,-0.0019 -1.04736,-0.05008 -1.58496,-0.0946c0.70752,-0.02065 1.63477,-0.01743 2.31445,-0.14014c-0.12305,-0.14688 -0.52148,-0.17485 -0.76025,-0.22244z" fill="#142962"/><path d="M169.43555,44.22468c2.72168,-0.07366 5.58838,-0.041 8.32764,-0.07395c-0.24609,4.55117 -0.05127,10.98994 -0.05127,15.63322l-0.00293,32.5677c-2.58545,-0.16518 -5.81689,-0.07073 -8.46387,-0.07337c0.19482,-2.89231 0.0498,-7.28548 0.04834,-10.32613l-0.03955,-19.41076c0.01758,-1.46893 -0.03223,-3.08722 -0.05127,-4.56626c-1.91748,2.45754 -12.92139,17.57896 -14.6543,18.10482c-1.49854,-0.45059 -12.3082,-15.15291 -14.35854,-17.80931c0.33794,10.91262 0.09126,23.05182 0.09082,34.02389c-2.8229,-0.01699 -5.6458,-0.0164 -8.46855,0.00161l-0.00776,-48.08802c2.47969,0.02138 4.95967,0.00176 7.43892,-0.05858c0.33193,0.04584 0.68584,0.07673 0.90264,0.36317c3.32285,4.3857 6.45278,8.96323 9.71646,13.39666c1.62158,2.20303 3.22998,4.44896 4.75342,6.69489c4.4458,-6.40084 10.04883,-14.20296 14.81982,-20.3796z" fill="#203a70"/><path d="M202.62598,44.09449c2.40527,-0.00952 5.58545,-0.12023 7.9248,-0.01582c2.22656,4.82018 4.40039,10.36406 6.43799,15.29949l8.44482,20.20841l3.59326,8.72966c0.39844,0.95229 1.2627,3.17143 1.75635,3.98343c-2.68945,0.06077 -6.41309,0.05067 -9.09961,-0.03749c-2.21045,-3.98489 -3.80566,-9.67375 -5.81396,-13.74885c-6.05273,-0.00103 -12.74414,0.12594 -18.74121,-0.04847c-1.49121,3.99309 -3.78076,10.01803 -5.52539,13.88211c-2.87256,-0.06297 -6.02197,-0.12067 -8.90332,-0.05286l9.95215,-24.07923c2.2207,-5.50566 4.47803,-10.99712 6.77051,-16.47378c0.79102,-1.90034 2.36426,-6.04587 3.20361,-7.6466zM200.06396,71.45381l6.84521,0.01479c2.02734,-0.00483 4.18652,0.02753 6.20361,-0.02563c-1.62744,-3.92119 -3.21387,-7.85893 -4.75928,-11.81278c-0.19482,-0.48588 -1.70361,-4.32961 -1.89404,-4.61209c-1.57617,4.95373 -4.43701,11.442 -6.39551,16.43571z" fill="#203a70"/><path d="M101.18818,43.55765c7.82651,-0.34252 13.46089,1.66647 19.44507,6.57159c-0.77607,1.3487 -3.65259,4.32038 -4.95176,6.3676c-2.44893,-1.99933 -4.68062,-3.43736 -7.7811,-4.27074c-9.2168,-2.47745 -18.04424,2.21196 -20.53506,11.59386c-1.17993,4.50768 -0.50962,9.29974 1.86167,13.311c2.24575,3.8922 5.95781,6.72257 10.30649,7.8582c5.12241,1.34182 9.01919,0.64814 13.52974,-1.98776c0.01304,-2.71732 0.00688,-5.43464 -0.01816,-8.15181l-8.90435,0.0145l0.01025,-7.2127l0.052,-0.15771c0.28433,-0.21204 15.81899,-0.14893 17.16313,-0.15303c-0.18911,6.50496 -0.05815,13.70799 -0.02402,20.23565c-2.26113,1.9204 -8.20547,4.06016 -11.08066,4.42304c-1.30693,0.16489 -7.74126,-1.25498 -9.71177,-1.53717c-1.69497,-0.24411 -3.39624,-0.4421 -5.10205,-0.59381c-4.69219,-0.38528 -5.93657,-0.23606 -9.65991,-3.47499c-4.61763,-3.9969 -7.44287,-9.67507 -7.8457,-15.76795c-0.71689,-10.79225 4.71387,-20.80544 14.78174,-25.24547c2.9209,-1.28822 5.33188,-1.61376 8.46445,-1.82228z" fill="#203a70"/><path d="M108.04116,68.5918c0.8814,-0.03968 4.55815,-0.15464 5.26025,0.23547c-1.37329,0.58546 -3.85605,0.04437 -5.26025,-0.23547z" fill="#142962"/><path d="M31.41064,44.15014l1.0686,0.06385c0.19746,4.29183 0.04951,9.79866 0.04585,14.20178l0.00952,25.9822c6.9356,0.15845 14.67832,0.05272 21.64409,-0.0309c-0.06841,2.66812 -0.07822,5.33726 -0.02974,8.00581c-1.64854,-0.16416 -4.46235,-0.09226 -6.21196,-0.08977l-24.05303,-0.00381l-0.0123,-48.06445c2.51323,0.01508 5.02646,-0.00644 7.53896,-0.06473z" fill="#203a70"/><path d="M68.53389,44.14487c0.43271,-0.00381 0.35845,-0.06722 0.67236,0.12535c-0.16948,15.04205 0.2833,30.4811 -0.03765,45.46662c-2.16768,0.71696 -5.56304,1.84132 -7.75532,1.40318c-0.33018,-0.05404 -0.37354,-0.076 -0.66548,-0.24075c-0.20347,-0.47666 -0.11499,-6.11807 -0.11514,-6.96829l0.00015,-26.51217l0.01392,-7.93523c0.00161,-1.51257 0.05039,-3.79145 -0.14326,-5.24573c2.625,-0.12037 5.35562,-0.0082 8.03042,-0.09299z" fill="#203a70"/><path d="M20.14658,112.15165l0.45747,0.40769c-0.27144,0.15801 -2.22817,1.27563 -2.40015,1.20958l0.1519,-0.18773l0.10078,0.09387l-0.02168,-0.16753l0.11968,0.11642l-0.04146,-0.18671c0.45044,-0.39582 1.14492,-0.90382 1.63345,-1.28559z" fill-opacity="0.97255" fill="#353b44"/></g></svg>
